<svg width="110" height="35" viewBox="0 0 110 35" fill="none" xmlns="http://www.w3.org/2000/svg">
<g clip-path="url(#clip0_573_4945)">
<path d="M17.086 0C7.64988 0 0 7.64967 0 17.0858C0 26.5224 7.64988 34.1714 17.086 34.1714C26.5232 34.1714 34.1723 26.5224 34.1723 17.0858C34.1723 7.65028 26.5232 0.000816117 17.0858 0.000816117L17.086 0ZM24.9216 24.6427C24.6155 25.1446 23.9586 25.3037 23.4566 24.9956C19.445 22.5452 14.3949 21.9903 8.44743 23.3491C7.87431 23.4797 7.30303 23.1206 7.17245 22.5473C7.04126 21.974 7.39892 21.4027 7.97347 21.2721C14.482 19.7851 20.0649 20.4254 24.5686 23.1777C25.0705 23.4858 25.2297 24.1408 24.9216 24.6427ZM27.0129 19.9904C26.6273 20.6172 25.8071 20.8151 25.1807 20.4295C20.588 17.6065 13.5871 16.789 8.15485 18.4379C7.45034 18.6507 6.70624 18.2537 6.49242 17.5504C6.28023 16.8459 6.67747 16.1032 7.38076 15.889C13.5859 14.0062 21.3001 14.9182 26.5742 18.1592C27.2006 18.5448 27.3985 19.365 27.0129 19.9906V19.9904ZM27.1924 15.1459C21.6857 11.8751 12.6002 11.5744 7.34261 13.1701C6.49833 13.4261 5.6055 12.9495 5.34965 12.1053C5.0938 11.2606 5.57 10.3684 6.41489 10.1117C12.4503 8.27951 22.4834 8.6335 28.8234 12.3972C29.5845 12.8479 29.8334 13.8287 29.3825 14.5871C28.9336 15.3465 27.9502 15.5968 27.1932 15.1459H27.1924ZM46.4854 15.7727C43.5352 15.0692 43.0108 14.5754 43.0108 13.538C43.0108 12.5578 43.933 11.8982 45.3061 11.8982C46.6364 11.8982 47.9544 12.3991 49.3378 13.4302C49.3786 13.4614 49.4316 13.4739 49.4826 13.4657C49.5357 13.458 49.5806 13.4296 49.6112 13.387L51.0516 11.3565C51.1108 11.2728 51.0945 11.1575 51.0149 11.0937C49.3684 9.773 47.5158 9.13092 45.349 9.13092C42.1641 9.13092 39.9381 11.0425 39.9381 13.7775C39.9381 16.7104 41.8581 17.7489 45.1756 18.5506C47.9973 19.2008 48.4747 19.7455 48.4747 20.7192C48.4747 21.7985 47.5117 22.4697 45.9611 22.4697C44.2391 22.4697 42.8333 21.8883 41.2623 20.5294C41.2235 20.4947 41.1705 20.4805 41.1215 20.4825C41.0685 20.4866 41.0215 20.5111 40.9889 20.5498L39.373 22.4718C39.3056 22.5534 39.3138 22.6717 39.3913 22.7411C41.2194 24.3733 43.4678 25.2343 45.8958 25.2343C49.3276 25.2343 51.5454 23.3593 51.5454 20.456C51.5515 18.0062 50.0845 16.6494 46.4916 15.7753L46.4854 15.7727ZM59.3107 12.8632C57.8234 12.8632 56.6033 13.4492 55.5953 14.6499V13.2984C55.5953 13.1917 55.5097 13.1048 55.4036 13.1048H52.7614C52.6553 13.1048 52.5696 13.1917 52.5696 13.2984V28.3152C52.5696 28.4213 52.6553 28.509 52.7614 28.509H55.4036C55.5097 28.509 55.5953 28.4213 55.5953 28.3152V23.5756C56.6033 24.7039 57.8234 25.2568 59.3107 25.2568C62.0753 25.2568 64.8746 23.1288 64.8746 19.0606C64.8787 14.9917 62.0794 12.863 59.3128 12.863L59.3107 12.8632ZM61.8019 19.0606C61.8019 21.1313 60.5267 22.5779 58.6986 22.5779C56.893 22.5779 55.5301 21.066 55.5301 19.0606C55.5301 17.055 56.893 15.5436 58.6986 15.5436C60.4961 15.5434 61.8019 17.0222 61.8019 19.0604V19.0606ZM72.0462 12.8632C68.4859 12.8632 65.6968 15.6046 65.6968 19.1049C65.6968 22.5677 68.4676 25.2792 72.0034 25.2792C75.5759 25.2792 78.3732 22.5473 78.3732 19.0606C78.3732 15.5858 75.5943 12.8636 72.0462 12.8636V12.8632ZM72.0462 22.5983C70.1528 22.5983 68.7246 21.0762 68.7246 19.0596C68.7246 17.0338 70.1039 15.5638 72.0034 15.5638C73.909 15.5638 75.3454 17.0852 75.3454 19.1039C75.3454 21.1293 73.958 22.5983 72.0462 22.5983ZM85.9753 13.1048H83.0679V10.1329C83.0679 10.0264 82.9822 9.93949 82.8761 9.93949H80.2339C80.1278 9.93949 80.0401 10.0264 80.0401 10.1329V13.1048H78.771C78.665 13.1048 78.5793 13.1917 78.5793 13.2984V15.5687C78.5793 15.6752 78.665 15.7623 78.771 15.7623H80.0401V21.6373C80.0401 24.0102 81.2214 25.2139 83.5535 25.2139C84.5002 25.2139 85.2857 25.0181 86.0263 24.5978C86.0875 24.5651 86.1243 24.4998 86.1243 24.4305V22.2678C86.1243 22.2025 86.0896 22.1392 86.0325 22.1045C85.9753 22.0678 85.9039 22.0658 85.8447 22.0964C85.3367 22.3514 84.845 22.4697 84.2941 22.4697C83.4474 22.4697 83.0679 22.0841 83.0679 21.2231V15.7633H85.9753C86.0814 15.7633 86.1671 15.6764 86.1671 15.5697V13.2997C86.1712 13.1929 86.0855 13.106 85.9774 13.106L85.9753 13.1048ZM96.1033 13.1164V12.7514C96.1033 11.6776 96.5155 11.1988 97.4377 11.1988C97.9886 11.1988 98.4313 11.3081 98.9271 11.4734C98.9883 11.4926 99.0516 11.483 99.1005 11.4465C99.1515 11.4099 99.1801 11.3514 99.1801 11.2894V9.06339C99.1801 8.97831 99.1271 8.90302 99.0434 8.87793C98.5211 8.72225 97.8519 8.5625 96.848 8.5625C94.4099 8.5625 93.1184 9.93643 93.1184 12.5343V13.0934H91.8493C91.7432 13.0934 91.6555 13.1803 91.6555 13.2868V15.5687C91.6555 15.6752 91.7432 15.7623 91.8493 15.7623H93.1184V24.8222C93.1184 24.9303 93.2061 25.016 93.3122 25.016H95.9524C96.0605 25.016 96.1462 24.9303 96.1462 24.8222V15.7629H98.6129L102.392 24.8222C101.963 25.773 101.541 25.9627 100.965 25.9627C100.5 25.9627 100.008 25.824 99.5086 25.5486C99.4617 25.5241 99.4045 25.52 99.3556 25.5343C99.3046 25.5526 99.2617 25.5894 99.2413 25.6383L98.3456 27.6031C98.3028 27.697 98.3395 27.8051 98.4293 27.8541C99.3637 28.3601 100.206 28.5763 101.249 28.5763C103.199 28.5763 104.279 27.6664 105.228 25.2221L109.81 13.3809C109.835 13.3213 109.826 13.2539 109.79 13.2011C109.755 13.1487 109.696 13.117 109.633 13.117H106.882C106.799 13.117 106.725 13.1695 106.699 13.2468L103.881 21.2925L100.796 13.2415C100.767 13.1666 100.696 13.117 100.616 13.117H96.1033V13.1164ZM90.2314 13.1048H87.5892C87.4831 13.1048 87.3954 13.1917 87.3954 13.2984V24.8222C87.3954 24.9303 87.4831 25.016 87.5892 25.016H90.2314C90.3375 25.016 90.4252 24.9303 90.4252 24.8222V13.2992C90.4252 13.1925 90.3395 13.1056 90.2314 13.1056V13.1048ZM88.9256 7.85737C87.8789 7.85737 87.0302 8.7045 87.0302 9.75097C87.0302 10.798 87.8789 11.6462 88.9256 11.6462C89.9723 11.6462 90.819 10.798 90.819 9.75097C90.819 8.70471 89.9702 7.85737 88.9256 7.85737Z" fill="#1ED760"/>
</g>
<defs>
<clipPath id="clip0_573_4945">
<rect width="109.824" height="34.32" fill="white"/>
</clipPath>
</defs>
</svg>
