<svg width="36" height="36" viewBox="0 0 36 36" fill="none" xmlns="http://www.w3.org/2000/svg">
<path d="M17.248 3C13.1192 3 9.74805 6.37119 9.74805 10.5C9.74805 14.6288 13.1192 18 17.248 18C21.3769 18 24.748 14.6288 24.748 10.5C24.748 6.37119 21.3769 3 17.248 3ZM17.248 5.25C20.1609 5.25 22.498 7.58718 22.498 10.5C22.498 13.4128 20.1609 15.75 17.248 15.75C14.3352 15.75 11.998 13.4128 11.998 10.5C11.998 7.58718 14.3352 5.25 17.248 5.25ZM24.1006 17.4814C23.9601 17.4626 23.8148 17.4833 23.6816 17.5444C23.4221 17.6667 23.2495 17.9332 23.2495 18.2212V30.9727C23.2495 31.2899 23.4498 31.5692 23.7461 31.6772C24.0408 31.7845 24.3742 31.6998 24.5752 31.4546L26.8062 28.7754L29.0225 33.6548C29.351 34.3763 30.1986 34.698 30.9224 34.374L31.6343 34.0547C32.3633 33.7284 32.6864 32.872 32.3564 32.146L30.1182 27.3003H33.748C34.0653 27.3003 34.3461 27.026 34.4541 26.7305C34.5621 26.435 34.4751 26.1038 34.2373 25.9028L24.4873 17.6514C24.3759 17.5576 24.241 17.5003 24.1006 17.4814ZM8.2334 21C6.5879 21 5.24805 22.3384 5.24805 23.9839V25.125C5.24805 27.609 6.66299 29.7559 9.22949 31.1719C11.3655 32.3509 14.212 33 17.248 33C18.751 33 20.283 32.8293 21.729 32.4873V30.167C20.3355 30.5525 18.7885 30.75 17.248 30.75C12.403 30.75 7.49805 28.818 7.49805 25.125V23.9839C7.49805 23.5789 7.8284 23.25 8.2334 23.25H21.729V21H8.2334Z" fill="#1E1E2F"/>
</svg>
