<svg width="36" height="36" viewBox="0 0 36 36" fill="none" xmlns="http://www.w3.org/2000/svg">
<path d="M16.5865 3.07612C16.4138 3.08136 16.2446 3.12797 16.0928 3.2122C15.9409 3.29642 15.8106 3.4159 15.7123 3.56098C15.7123 3.56098 14.5535 5.27649 13.1527 7.22455C11.7519 9.17262 10.0455 11.3999 9.23511 12.1816C7.70077 13.6619 6.61523 15.6761 6.61523 17.956V22.8749C6.61523 27.6252 10.4125 31.4999 15.0677 31.4999H21.9325C24.7023 31.4999 27.0556 29.3803 27.402 26.5766L27.7852 23.7802L28.4025 19.2802L28.6552 17.4462C28.9931 14.9848 27.0867 12.7499 24.6514 12.7499H18.4255C18.9343 11.4641 19.3085 10.2999 19.5696 8.98969C19.5701 8.98969 19.5706 8.98969 19.571 8.98969C19.7238 8.22215 19.8524 7.61999 19.8524 6.97993C19.8524 5.43762 19.0806 4.33025 18.3322 3.77631C17.5837 3.22238 16.8062 3.09077 16.8062 3.09077C16.7336 3.07842 16.6601 3.07351 16.5865 3.07612ZM17.0072 5.58393C17.0228 5.59478 17.0214 5.58684 17.0373 5.59858C17.3539 5.8329 17.6474 6.11473 17.6474 6.97993C17.6474 7.26087 17.5606 7.78049 17.4091 8.54145C17.1384 9.8996 16.8311 10.9579 16.2621 12.3134C16.2621 12.3139 16.2621 12.3144 16.2621 12.3149C16.0232 12.8859 16.0469 13.5305 16.3396 14.0639C16.6323 14.5973 17.2569 14.9999 17.9159 14.9999H24.6514C25.7868 14.9999 26.6278 15.9867 26.4703 17.1342L26.2191 18.9697L25.6018 23.4697L25.2171 26.2763C25.216 26.2822 25.2151 26.288 25.2142 26.2939C25.0058 27.9923 23.6094 29.2499 21.9325 29.2499H15.0677C11.6041 29.2499 8.82023 26.4092 8.82023 22.8749V17.956C8.82023 16.4049 9.55857 14.9655 10.7496 13.8164C11.8994 12.7073 13.507 10.5348 14.9299 8.5561C16.0674 6.9742 16.6603 6.09328 17.0072 5.58393Z" fill="#1E1E2F"/>
</svg>
