<svg width="81" height="34" viewBox="0 0 81 34" fill="none" xmlns="http://www.w3.org/2000/svg">
<g clip-path="url(#clip0_573_4960)">
<path d="M34.3495 18.1688C34.3495 21.9394 31.3841 24.7179 27.7448 24.7179C24.1056 24.7179 21.1401 21.9394 21.1401 18.1688C21.1401 14.3716 24.1056 11.6196 27.7448 11.6196C31.3841 11.6196 34.3495 14.3716 34.3495 18.1688ZM31.4583 18.1688C31.4583 15.8125 29.7396 14.2003 27.7448 14.2003C25.7501 14.2003 24.0314 15.8125 24.0314 18.1688C24.0314 20.5014 25.7501 22.1372 27.7448 22.1372C29.7396 22.1372 31.4583 20.4985 31.4583 18.1688Z" fill="#EA4335"/>
<path d="M48.5981 18.1688C48.5981 21.9394 45.6326 24.7179 41.9934 24.7179C38.3541 24.7179 35.3887 21.9394 35.3887 18.1688C35.3887 14.3745 38.3541 11.6196 41.9934 11.6196C45.6326 11.6196 48.5981 14.3716 48.5981 18.1688ZM45.7068 18.1688C45.7068 15.8125 43.9881 14.2003 41.9934 14.2003C39.9986 14.2003 38.2799 15.8125 38.2799 18.1688C38.2799 20.5014 39.9986 22.1372 41.9934 22.1372C43.9881 22.1372 45.7068 20.4985 45.7068 18.1688Z" fill="#FBBC05"/>
<path d="M62.253 12.0153V23.773C62.253 28.6096 59.3855 30.585 55.9956 30.585C52.8046 30.585 50.884 28.462 50.1597 26.7258L52.6769 25.6834C53.1252 26.7494 54.2235 28.0072 55.9926 28.0072C58.1625 28.0072 59.5072 26.6756 59.5072 24.1687V23.2268H59.4063C58.7592 24.0211 57.5124 24.7149 55.9392 24.7149C52.6472 24.7149 49.6313 21.8626 49.6313 18.1924C49.6313 14.4956 52.6472 11.6196 55.9392 11.6196C57.5095 11.6196 58.7562 12.3135 59.4063 13.0842H59.5072V12.0182H62.253V12.0153ZM59.712 18.1924C59.712 15.8863 58.1655 14.2003 56.1975 14.2003C54.2027 14.2003 52.5315 15.8863 52.5315 18.1924C52.5315 20.4748 54.2027 22.1372 56.1975 22.1372C58.1655 22.1372 59.712 20.4748 59.712 18.1924Z" fill="#4285F4"/>
<path d="M66.7795 5.12402V24.3167H63.9595V5.12402H66.7795Z" fill="#34A853"/>
<path d="M77.7686 20.3243L80.0127 21.8124C79.2884 22.8784 77.543 24.715 74.5271 24.715C70.7869 24.715 67.9937 21.839 67.9937 18.1658C67.9937 14.2712 70.8107 11.6167 74.2035 11.6167C77.6202 11.6167 79.2914 14.3214 79.8376 15.783L80.1374 16.5271L71.3361 20.153C72.0099 21.467 73.0577 22.1372 74.5271 22.1372C75.9994 22.1372 77.0205 21.4168 77.7686 20.3243ZM70.8611 17.968L76.7445 15.5379C76.4209 14.72 75.4473 14.1501 74.3015 14.1501C72.8321 14.1501 70.7869 15.4405 70.8611 17.968V17.968Z" fill="#EA4335"/>
<path d="M10.4658 16.4649V13.6864H19.8786C19.9706 14.1706 20.0181 14.7435 20.0181 15.3635C20.0181 17.4482 19.4452 20.0259 17.5988 21.8625C15.803 23.7227 13.5084 24.7148 10.4688 24.7148C4.83473 24.7148 0.097168 20.1499 0.097168 14.5456C0.097168 8.94137 4.83473 4.37646 10.4688 4.37646C13.5856 4.37646 15.8059 5.59299 17.4742 7.1786L15.5032 9.1392C14.3069 8.02308 12.6861 7.15498 10.4658 7.15498C6.35159 7.15498 3.13384 10.4532 3.13384 14.5456C3.13384 18.6381 6.35159 21.9363 10.4658 21.9363C13.1344 21.9363 14.6542 20.8704 15.6278 19.9019C16.4174 19.1164 16.9369 17.9944 17.1417 16.462L10.4658 16.4649V16.4649Z" fill="#4285F4"/>
</g>
<defs>
<clipPath id="clip0_573_4960">
<rect width="80.4667" height="34" fill="white"/>
</clipPath>
</defs>
</svg>
