<svg width="85" height="25" viewBox="0 0 85 25" fill="none" xmlns="http://www.w3.org/2000/svg">
<g clip-path="url(#clip0_573_4429)">
<path d="M42.1795 8.02063C42.241 7.92563 42.3055 7.83069 42.367 7.73569C42.9877 6.79469 43.8972 6.3435 45.0311 6.27819C45.6703 6.24256 46.3002 6.32569 46.9055 6.51569C47.7967 6.79769 48.4789 7.34388 48.9521 8.12456C49.2778 8.65588 49.4868 9.23175 49.6128 9.83731C49.9385 11.4284 49.9508 13.0165 49.5881 14.6016C49.5329 14.8509 49.4499 15.0973 49.3577 15.3378C48.7831 16.8784 47.6123 17.7273 45.9714 17.9915C45.3261 18.0954 44.6747 18.1192 44.014 18.042C43.2028 17.9441 42.5053 17.6917 42.0873 16.9615C42.0627 16.9169 42.0382 16.8932 41.992 16.9229C41.9644 16.9407 41.9276 16.9704 41.9245 16.9971C41.9122 17.1337 41.9091 17.2732 41.906 17.4098C41.8938 17.8461 41.8938 17.852 41.4758 17.852C39.921 17.855 38.3661 17.855 36.8113 17.852C36.59 17.852 36.5377 17.8104 36.5224 17.6413C36.5101 17.4839 36.5624 17.4157 36.7129 17.4068H36.7744C36.9772 17.3949 37.2261 17.4543 37.3674 17.3593C37.5641 17.2286 37.4504 16.9556 37.4504 16.7478C37.4566 11.5501 37.4566 6.35238 37.4535 1.15471C37.4535 0.940988 37.5426 0.6857 37.4012 0.52244C37.2507 0.344336 36.9803 0.474946 36.7621 0.451198C36.5593 0.430419 36.4825 0.338399 36.5347 0.142484C36.5562 0.0593682 36.6023 0.00296841 36.7006 0.00296841C36.7836 0.00296841 36.8635 0 36.9464 0H41.5496C41.651 0 41.7555 0 41.8569 0.00593682C41.9737 0.0118736 42.0474 0.0712419 42.0536 0.18701C42.0627 0.344336 42.0627 0.501661 42.0627 0.661956V7.99988C42.0996 7.99988 42.1396 8.00875 42.1795 8.02063ZM45.111 12.1081C45.0864 11.2324 45.0711 10.3449 45.0311 9.45738C45.0127 9.08331 44.9574 8.70931 44.8929 8.34125C44.8591 8.15125 44.7822 7.95831 44.687 7.78913C44.4504 7.36163 44.011 7.20731 43.5408 7.37056C43.2857 7.45663 43.0768 7.614 42.8986 7.80988C42.5544 8.18981 42.3454 8.63213 42.2133 9.116C42.0904 9.56125 42.0658 10.0124 42.0658 10.4666C42.0597 11.9479 42.0627 13.4291 42.0658 14.9074C42.0658 15.0854 42.075 15.2636 42.0904 15.4387C42.1273 15.8573 42.2533 16.2491 42.4622 16.6171C42.5698 16.8101 42.705 16.9853 42.8893 17.1129C43.4148 17.4839 44.2629 17.573 44.6654 16.6914C44.7238 16.5667 44.7669 16.4331 44.8007 16.2996C44.939 15.783 45.0127 15.2546 45.0311 14.7203C45.0619 13.8595 45.0833 12.9898 45.111 12.1081Z" fill="#1E1E2F"/>
<path d="M9.90691 1.76027V17.2553C10.2203 17.38 10.5491 17.2999 10.8718 17.3207C11.0992 17.3355 11.1914 17.4423 11.1483 17.668C11.1268 17.7748 11.0654 17.8431 10.9425 17.8431C10.841 17.8431 10.7366 17.8461 10.6351 17.8461H4.37267C4.27127 17.8461 4.16679 17.849 4.06539 17.8431C3.88102 17.8312 3.83185 17.7718 3.838 17.573C3.84107 17.38 3.88716 17.3296 4.08997 17.3237C4.39726 17.3177 4.70147 17.3207 4.98725 17.3207C5.01797 17.2791 5.03026 17.2643 5.04256 17.2465C5.05178 17.2316 5.07021 17.2138 5.07021 17.196C5.07328 12.1735 5.07636 7.1509 5.07943 2.12835V1.78698C4.29892 1.62075 3.56451 1.79588 2.93765 2.27677C2.59656 2.54096 2.34152 2.87342 2.12334 3.2326C1.72694 3.88268 1.41966 4.56838 1.14311 5.27189C0.955658 5.75278 0.786653 6.2396 0.605352 6.72047C0.525458 6.93122 0.359524 6.99953 0.116769 6.94015C0.0522385 6.92528 0.0122914 6.88078 0.00614571 6.81847C0 6.75909 0 6.69972 0 6.64034C0.0645301 4.96021 0.125987 3.28009 0.190517 1.60294C0.19359 1.52279 0.199736 1.44562 0.212027 1.36843C0.227391 1.25563 0.30114 1.1933 0.414835 1.18737C0.55926 1.18143 0.700614 1.1844 0.845032 1.1844H14.1075C14.2304 1.1844 14.3533 1.18143 14.4762 1.18737C14.7036 1.19923 14.7466 1.23783 14.7589 1.47827C14.7927 2.2085 14.8204 2.93872 14.8511 3.67192C14.8941 4.67821 14.9371 5.68747 14.9771 6.69378C14.9863 6.89859 14.9371 6.94609 14.7405 6.95203C14.4762 6.9609 14.4394 6.93715 14.341 6.68784C14.0737 6.00509 13.8217 5.31642 13.5421 4.63665C13.2932 4.0311 13.0012 3.44335 12.6233 2.90013C12.2423 2.35692 11.7352 1.97696 11.0715 1.81073C10.6936 1.71574 10.3125 1.66825 9.90691 1.76027Z" fill="#1E1E2F"/>
<path d="M65.5472 14.8687V7.63471C65.5472 7.47734 65.544 7.31709 65.5472 7.15971C65.5472 7.00834 65.4616 6.9549 65.3167 6.9579C65.1543 6.96084 64.9881 6.96084 64.825 6.9549C64.6563 6.94896 64.5945 6.8629 64.6285 6.6729C64.6411 6.59871 64.6594 6.51265 64.7702 6.51265C64.8527 6.51265 64.9327 6.50671 65.0158 6.50671H69.6801C69.7821 6.50671 69.886 6.50965 69.9873 6.51559C70.0767 6.52153 70.1416 6.56903 70.1473 6.66103C70.1567 6.75903 70.1598 6.85696 70.1598 6.9579C70.1598 10.4368 70.1687 13.9129 70.1473 17.3918C70.1416 18.698 69.9873 19.9922 69.573 21.2478C69.4037 21.7584 69.189 22.2482 68.9119 22.7083C68.1746 23.9342 67.0501 24.617 65.6303 24.8722C64.6959 25.0385 63.759 25.0444 62.8248 24.8781C62.0843 24.7446 61.4174 24.4715 60.9074 23.9135C60.2652 23.2129 60.1176 22.4085 60.4065 21.5357C60.6554 20.7877 61.2423 20.39 62.0228 20.2504C62.367 20.1881 62.7172 20.197 63.0614 20.2534C63.8081 20.3751 64.3767 20.9925 64.429 21.7257C64.4749 22.355 64.2816 22.8923 63.793 23.3227C63.6728 23.4296 63.5437 23.5305 63.4335 23.6433C63.1351 23.9461 63.2245 24.3379 63.6205 24.4953C64.2999 24.7624 65.0252 24.4567 65.2771 23.7947C65.4244 23.3999 65.4704 22.9843 65.4949 22.5717C65.5321 21.9216 65.5535 21.2686 65.5566 20.6155C65.5535 18.7009 65.5472 16.7833 65.5472 14.8687Z" fill="#1E1E2F"/>
<path d="M57.594 16.4865C57.4741 16.6854 57.3881 16.8427 57.2928 16.9941C56.9578 17.5344 56.4631 17.8639 55.8301 17.9856C54.8898 18.1666 53.9526 18.1221 53.0369 17.8579C52.0075 17.5611 51.3745 16.8962 51.1932 15.8513C51.101 15.317 51.1133 14.7856 51.27 14.2662C51.4513 13.6666 51.8385 13.2212 52.4131 12.9363C52.7788 12.7552 53.166 12.6365 53.5655 12.5415C54.5887 12.3011 55.6304 12.2744 56.6751 12.2476C56.7981 12.2447 56.921 12.2476 57.0439 12.2476C57.5079 12.2417 57.511 12.2417 57.5141 11.7876C57.5141 11.0157 57.5232 10.2439 57.5018 9.47511C57.4864 8.96161 57.4342 8.45105 57.3789 7.93749C57.3512 7.68224 57.2866 7.43286 57.1699 7.19836C56.9855 6.82436 56.6844 6.61655 56.2511 6.62549C55.7902 6.63436 55.4091 6.80655 55.1971 7.21618C55.0343 7.52786 55.1264 7.83655 55.3078 8.11561C55.406 8.26405 55.529 8.40355 55.6673 8.51636C56.2204 8.97049 56.1712 9.89961 55.7348 10.4042C55.2524 10.9623 54.6256 11.1939 53.8942 11.1879C53.6699 11.1849 53.4425 11.1523 53.2274 11.0989C52.3578 10.8881 51.8016 10.2232 51.7862 9.32968C51.7678 8.29961 52.1949 7.49224 53.1506 6.98168C53.7866 6.6403 54.4842 6.47999 55.1941 6.39393C55.9438 6.30193 56.6998 6.23957 57.4588 6.27518C58.0118 6.29893 58.5588 6.35536 59.0996 6.47999C60.9771 6.91043 61.8836 8.06218 62.0619 9.80461C62.1018 10.1964 62.0988 10.5942 62.1018 10.9891C62.1049 12.4702 62.1049 13.9545 62.1018 15.4357C62.1018 15.7147 62.1202 15.9878 62.1848 16.2579C62.2186 16.3975 62.2769 16.5192 62.3692 16.6261C62.575 16.8694 62.95 16.8872 63.1833 16.6676C63.3036 16.5548 63.3829 16.4182 63.4477 16.2728C63.4817 16.1986 63.534 16.1362 63.6228 16.1214C63.7027 16.1096 63.7859 16.0977 63.8532 16.1541C63.9086 16.1986 63.8992 16.2609 63.8809 16.3144C63.6196 17.2138 63.0234 17.7837 62.0741 17.9767C61.1154 18.1696 60.1567 18.1132 59.2195 17.849C58.5711 17.665 58.0365 17.3117 57.7476 16.6854C57.7199 16.6379 57.6769 16.5964 57.594 16.4865ZM57.4987 12.6721C56.6506 12.6484 56.2572 12.8977 56.0053 13.5864C55.9592 13.7141 55.9285 13.8506 55.9008 13.9871C55.7595 14.7114 55.8086 15.4416 55.8608 16.1719C55.8732 16.347 55.8946 16.5281 55.9438 16.6973C56.0667 17.1217 56.5184 17.2376 56.8565 16.9407C56.9947 16.819 57.09 16.6706 57.1791 16.5102C57.385 16.1362 57.4833 15.7296 57.4956 15.317C57.514 14.4502 57.4987 13.5834 57.4987 12.6721Z" fill="#1E1E2F"/>
<path d="M78.7241 16.5457C78.6347 16.5635 78.6045 16.6407 78.5737 16.706C78.1587 17.558 77.446 17.9617 76.4934 18.0507C75.7284 18.122 74.9785 18.0715 74.2437 17.8785C73.0084 17.552 72.3265 16.709 72.2648 15.4682C72.2465 15.112 72.2591 14.7617 72.3479 14.4085C72.5229 13.7079 72.9473 13.2063 73.6109 12.8946C74.1486 12.6423 74.7266 12.5147 75.3103 12.4167C76.1615 12.2772 77.0216 12.2623 77.8792 12.2445C78.7518 12.2297 78.6291 12.3276 78.6322 11.5202C78.6347 10.4338 78.6536 9.34434 78.5334 8.2609C78.4968 7.94621 78.454 7.63159 78.3432 7.33478C78.1065 6.69059 77.5165 6.45315 76.8592 6.72028C76.2503 6.96965 76.0507 7.53365 76.3951 8.07984C76.4902 8.22821 76.6161 8.36778 76.7515 8.48353C77.366 9.00896 77.2924 9.95584 76.7452 10.508C76.2447 11.0126 75.6238 11.2085 74.9136 11.1818C74.7726 11.1759 74.6278 11.1492 74.4899 11.1254C73.5404 10.9562 72.9227 10.2943 72.8919 9.36515C72.8579 8.3084 73.2974 7.48909 74.2777 6.96965C74.8985 6.64015 75.5747 6.47984 76.2629 6.39671C77.3811 6.26315 78.5031 6.19785 79.6277 6.36703C80.1559 6.44721 80.6691 6.57184 81.152 6.79453C82.0524 7.20415 82.648 7.86909 82.9521 8.78628C83.1492 9.37703 83.2046 9.98259 83.2046 10.6V14.5747C83.2046 14.9309 83.2077 15.2871 83.2046 15.6433C83.2046 15.863 83.2291 16.0797 83.2997 16.2875C83.3368 16.3973 83.3796 16.5131 83.4501 16.6081C83.656 16.8871 84.0647 16.9138 84.3014 16.6585C84.4091 16.5428 84.4827 16.3973 84.5595 16.2608C84.6181 16.1628 84.6981 16.1272 84.8083 16.1242C84.9285 16.1183 85.0236 16.1955 84.9959 16.2905C84.7377 17.2136 84.1352 17.8013 83.1555 17.9913C82.3011 18.1576 81.4467 18.119 80.5985 17.929C79.8027 17.7509 79.1573 17.3798 78.8104 16.6258C78.801 16.5873 78.755 16.5695 78.7241 16.5457ZM78.5737 12.6749C77.7898 12.6423 77.3755 12.8975 77.123 13.5743C77.0833 13.6842 77.0493 13.8 77.0311 13.9157C76.8806 14.8003 76.9051 15.6849 77.0342 16.5695C77.043 16.6288 77.0525 16.6882 77.0739 16.7417C77.2061 17.0978 77.6084 17.2195 77.9157 16.9821C78.0265 16.896 78.1159 16.7832 78.1959 16.6704C78.3772 16.4032 78.4905 16.1093 78.5397 15.7918C78.7027 14.7706 78.6379 13.7465 78.6045 12.7224C78.6045 12.7076 78.5856 12.6927 78.5737 12.6749Z" fill="#1E1E2F"/>
<path d="M16.9442 17.3829V7.01421C16.6738 6.90734 16.4034 6.98752 16.1422 6.94596C16.05 6.93108 16.0069 6.86877 16.0069 6.77971C16.0069 6.68177 15.9947 6.57196 16.1146 6.53333C16.1883 6.50958 16.2743 6.50958 16.3542 6.50958C17.9705 6.50958 19.5868 6.50665 21.2032 6.50958C21.4981 6.50958 21.5258 6.53927 21.5319 6.80346C21.5381 7.17746 21.535 7.55446 21.535 7.92852V8.3619C21.7409 8.29658 21.7501 8.14815 21.8116 8.03833C22.4722 6.83908 23.5293 6.28996 24.9121 6.26915C25.2225 6.26621 25.5267 6.32552 25.8186 6.41165C26.7773 6.69658 27.3796 7.45352 27.4318 8.43015C27.4564 8.86652 27.4442 9.2999 27.3089 9.7214C27.0754 10.4457 26.6022 10.894 25.8125 11.0394C25.3792 11.1166 24.9582 11.1076 24.5372 10.9978C23.5631 10.7425 23.0684 9.83127 23.4249 8.91102C23.5231 8.65577 23.6891 8.42127 23.8212 8.17783C23.9135 8.00271 24.0148 7.83052 24.0855 7.64652C24.15 7.47433 24.0394 7.28434 23.8581 7.21609C23.6553 7.14184 23.4556 7.16558 23.2681 7.26358C23.0131 7.40015 22.8041 7.58715 22.6198 7.80083C22.125 8.37671 21.8269 9.04165 21.6733 9.76596C21.5873 10.1726 21.5381 10.5852 21.5381 11.0008C21.5412 12.9956 21.5412 14.9933 21.5412 16.9881C21.5412 17.0682 21.5443 17.1454 21.5473 17.2255C21.5535 17.3473 21.6303 17.3948 21.7471 17.3977C21.9499 17.4007 22.1558 17.4007 22.3586 17.4155C22.4538 17.4215 22.4846 17.4986 22.4876 17.5847C22.4907 17.6886 22.4753 17.7895 22.3616 17.8281C22.2879 17.8519 22.1988 17.846 22.1189 17.846H16.4095C16.3265 17.846 16.2436 17.846 16.1637 17.8341C16.0408 17.8133 16.0162 17.7183 16.0162 17.6115C16.0131 17.5016 16.0408 17.4155 16.1729 17.4096C16.4126 17.3977 16.6553 17.3918 16.9442 17.3829Z" fill="#1E1E2F"/>
<path d="M29.4654 17.3533V7.01432C29.195 6.91345 28.9246 6.98763 28.6634 6.94907C28.5712 6.9342 28.5282 6.87188 28.5282 6.78282C28.5282 6.68782 28.5128 6.57501 28.6357 6.53645C28.7095 6.5127 28.7955 6.5127 28.8754 6.5127H33.7213C33.7828 6.5127 33.8442 6.5127 33.9057 6.52157C33.9979 6.53345 34.047 6.59282 34.0532 6.67895C34.0593 6.85701 34.0624 7.03513 34.0624 7.21026C34.0624 10.3894 34.0624 13.5716 34.0655 16.7508C34.0655 16.9437 33.9887 17.1723 34.1147 17.3236C34.2529 17.4899 34.4956 17.3741 34.6923 17.3978C34.7538 17.4068 34.8152 17.4038 34.8767 17.4097C35.0089 17.4216 35.0273 17.5136 35.0273 17.6175C35.0273 17.7214 34.9935 17.8164 34.8706 17.8342C34.7692 17.8491 34.6677 17.8461 34.5633 17.8461H28.983C28.8815 17.8461 28.7771 17.8491 28.6787 17.8313C28.5558 17.8075 28.5405 17.7066 28.5405 17.6026C28.5374 17.4899 28.5774 17.4186 28.7034 17.4038C28.9399 17.38 29.1889 17.4394 29.4654 17.3533Z" fill="#1E1E2F"/>
<path d="M67.8148 5.17689C66.5366 5.17095 65.1508 4.19138 65.1754 2.53798C65.1968 1.10127 66.3799 -0.0118878 67.8582 0.00295432C69.6772 0.0207647 70.553 1.48122 70.5316 2.60922C70.5071 4.04593 69.3051 5.1947 67.8148 5.17689Z" fill="#5937CC"/>
<path d="M29.1331 2.58551C29.0686 1.43673 30.0458 2.69061e-05 31.8188 0.00299531C33.3768 0.00596372 34.4645 1.22004 34.4738 2.56177C34.483 4.00144 33.2938 5.16506 31.8096 5.17397C30.3039 5.1888 29.084 3.95988 29.1331 2.58551Z" fill="#5937CC"/>
</g>
<defs>
<clipPath id="clip0_573_4429">
<rect width="85" height="25" fill="white"/>
</clipPath>
</defs>
</svg>
