<svg width="117" height="34" viewBox="0 0 117 34" fill="none" xmlns="http://www.w3.org/2000/svg">
<g clip-path="url(#clip0_573_5001)">
<path d="M116.066 15.4656V13.4244H113.531V10.2511L113.446 10.2774L111.065 11.0059L111.018 11.0201V13.4245H107.26V12.0851C107.26 11.4614 107.4 10.9841 107.674 10.6658C107.947 10.3513 108.338 10.1914 108.836 10.1914C109.194 10.1914 109.564 10.2757 109.937 10.442L110.031 10.4838V8.33411L109.987 8.31795C109.639 8.19287 109.166 8.12988 108.579 8.12988C107.84 8.12988 107.168 8.29078 106.582 8.60964C105.996 8.92896 105.535 9.3848 105.212 9.96438C104.89 10.5433 104.726 11.2119 104.726 11.9518V13.4244H102.961V15.4656H104.726V24.0648H107.26V15.4656H111.018V20.9302C111.018 23.1808 112.08 24.3214 114.173 24.3214C114.517 24.3214 114.879 24.281 115.249 24.2021C115.625 24.121 115.882 24.0401 116.033 23.9536L116.066 23.9339V21.8738L115.963 21.942C115.825 22.0336 115.654 22.1085 115.453 22.1642C115.252 22.2209 115.083 22.2493 114.953 22.2493C114.462 22.2493 114.099 22.1171 113.874 21.8563C113.647 21.5931 113.531 21.1329 113.531 20.4891V15.4656H116.066ZM97.3031 22.2496C96.3834 22.2496 95.6583 21.9447 95.1474 21.344C94.6333 20.7403 94.3728 19.8796 94.3728 18.786C94.3728 17.6577 94.6333 16.7747 95.1476 16.1603C95.6589 15.5499 96.377 15.2402 97.2824 15.2402C98.161 15.2402 98.8604 15.536 99.3613 16.12C99.8648 16.7069 100.12 17.5829 100.12 18.7243C100.12 19.8798 99.8801 20.7673 99.4063 21.3611C98.9357 21.9503 98.2281 22.2496 97.3031 22.2496V22.2496ZM97.4157 13.1681C95.6612 13.1681 94.2676 13.6822 93.2739 14.6962C92.2809 15.7103 91.7775 17.1136 91.7775 18.8676C91.7775 20.5336 92.2689 21.8736 93.2383 22.8498C94.2077 23.8264 95.527 24.3211 97.1592 24.3211C98.8599 24.3211 100.226 23.7998 101.219 22.7718C102.212 21.7449 102.715 20.3548 102.715 18.6418C102.715 16.9498 102.243 15.5998 101.311 14.63C100.379 13.6599 99.0685 13.1681 97.4157 13.1681V13.1681ZM87.6923 13.1681C86.4988 13.1681 85.5115 13.4734 84.7574 14.0753C83.9986 14.6808 83.6137 15.4749 83.6137 16.4359C83.6137 16.9354 83.6968 17.3792 83.8603 17.7555C84.0248 18.1331 84.2793 18.4655 84.6175 18.7446C84.9531 19.0213 85.4711 19.3112 86.1576 19.6062C86.7347 19.8436 87.1651 20.0445 87.4384 20.2028C87.7057 20.358 87.8953 20.5139 88.0024 20.6658C88.1065 20.8145 88.1593 21.0179 88.1593 21.269C88.1593 21.9839 87.6239 22.3317 86.5224 22.3317C86.1138 22.3317 85.6477 22.2464 85.1372 22.0782C84.6303 21.9125 84.1519 21.6699 83.7187 21.3589L83.6135 21.2835V23.7229L83.6521 23.7409C84.0106 23.9064 84.4627 24.0459 84.9954 24.1557C85.5272 24.2657 86.0103 24.3216 86.43 24.3216C87.7251 24.3216 88.768 24.0148 89.529 23.4093C90.2949 22.7997 90.683 21.9868 90.683 20.9926C90.683 20.2753 90.4741 19.6603 90.0622 19.1642C89.6532 18.6722 88.9433 18.2206 87.9531 17.8213C87.1643 17.5047 86.6589 17.2418 86.4504 17.0401C86.2494 16.8452 86.1474 16.5695 86.1474 16.2205C86.1474 15.911 86.2733 15.6631 86.5319 15.4624C86.7925 15.2606 87.1553 15.158 87.6102 15.158C88.0324 15.158 88.4643 15.2247 88.8939 15.3554C89.3231 15.486 89.7001 15.6611 90.0149 15.8752L90.1184 15.9459V13.6319L90.0786 13.6148C89.7883 13.4903 89.4054 13.3838 88.9404 13.2973C88.4775 13.2114 88.0575 13.1681 87.6923 13.1681V13.1681ZM77.0084 22.2496C76.0889 22.2496 75.3636 21.9447 74.8528 21.344C74.3385 20.7403 74.0785 19.8798 74.0785 18.786C74.0785 17.6577 74.3389 16.7747 74.8533 16.1603C75.3642 15.5499 76.0822 15.2402 76.988 15.2402C77.8663 15.2402 78.5656 15.536 79.0667 16.12C79.5703 16.7069 79.8257 17.5829 79.8257 18.7243C79.8257 19.8798 79.5854 20.7673 79.1115 21.3611C78.641 21.9503 77.9338 22.2496 77.0084 22.2496V22.2496ZM77.1213 13.1681C75.3663 13.1681 73.9726 13.6822 72.9795 14.6962C71.9866 15.7103 71.4828 17.1136 71.4828 18.8676C71.4828 20.5342 71.9746 21.8736 72.944 22.8498C73.9133 23.8264 75.2325 24.3211 76.8647 24.3211C78.5652 24.3211 79.9314 23.7998 80.9246 22.7718C81.9175 21.7449 82.4208 20.3548 82.4208 18.6418C82.4208 16.9498 81.9486 15.5998 81.0168 14.63C80.0845 13.6599 78.7738 13.1681 77.1213 13.1681V13.1681ZM67.6366 15.2671V13.4244H65.1337V24.0646H67.6366V18.6217C67.6366 17.6962 67.8465 16.9359 68.2605 16.3616C68.6693 15.7941 69.2141 15.5066 69.8792 15.5066C70.1047 15.5066 70.3578 15.5438 70.6318 15.6173C70.9031 15.6904 71.0996 15.7698 71.2154 15.8533L71.3207 15.9295V13.4062L71.2801 13.3888C71.047 13.2898 70.7173 13.2398 70.3001 13.2398C69.6711 13.2398 69.1082 13.4419 68.6261 13.8398C68.2029 14.1896 67.8971 14.6691 67.6632 15.2671H67.6366ZM60.6515 13.1681C59.5033 13.1681 58.4791 13.4143 57.6079 13.8997C56.735 14.3862 56.0599 15.0807 55.6005 15.9639C55.1432 16.8449 54.911 17.8741 54.911 19.0218C54.911 20.0271 55.1362 20.9497 55.5811 21.7628C56.0263 22.5772 56.6564 23.2144 57.454 23.6563C58.2505 24.0977 59.1711 24.3215 60.1903 24.3215C61.3798 24.3215 62.3953 24.0837 63.2095 23.6147L63.2424 23.5958V21.3028L63.1372 21.3796C62.7684 21.6483 62.3562 21.8627 61.9127 22.0172C61.4704 22.1716 61.0671 22.2496 60.7134 22.2496C59.7313 22.2496 58.9429 21.9423 58.3706 21.3365C57.7971 20.7298 57.5063 19.878 57.5063 18.8061C57.5063 17.7274 57.8096 16.8537 58.4072 16.209C59.0031 15.5662 59.793 15.2402 60.7547 15.2402C61.5774 15.2402 62.379 15.5187 63.1375 16.0689L63.2424 16.1451V13.729L63.2085 13.7099C62.9231 13.5502 62.5339 13.4182 62.0506 13.3182C61.5694 13.2184 61.0987 13.1681 60.6515 13.1681V13.1681ZM53.1873 13.4245H50.6844V24.0646H53.1873V13.4245V13.4245ZM51.9614 8.89179C51.5495 8.89179 51.1902 9.03203 50.895 9.30991C50.5986 9.58859 50.4483 9.93945 50.4483 10.3535C50.4483 10.7611 50.5968 11.1056 50.8904 11.3768C51.1821 11.6473 51.5425 11.7844 51.9615 11.7844C52.3804 11.7844 52.7422 11.6473 53.0374 11.3773C53.3345 11.1056 53.4851 10.7612 53.4851 10.3535C53.4851 9.95394 53.3385 9.60666 53.0496 9.32114C52.7609 9.03618 52.3947 8.89179 51.9614 8.89179ZM45.7166 12.6395V24.0646H48.2709V9.21751H44.7356L40.2421 20.2455L35.8814 9.21751H32.2021V24.0645H34.6025V12.6384H34.6849L39.2897 24.0646H41.1012L45.6342 12.6395H45.7166V12.6395Z" fill="#706D6E"/>
<path d="M11.7743 16.0306H0V4.25635H11.7743V16.0306Z" fill="#F1511B"/>
<path d="M24.7745 16.0306H13.0005V4.25635H24.7745V16.0306Z" fill="#80CC28"/>
<path d="M11.7739 29.0354H0V17.2612H11.7739V29.0354Z" fill="#00ADEF"/>
<path d="M24.7745 29.0354H13.0005V17.2612H24.7745V29.0354Z" fill="#FBBC09"/>
</g>
<defs>
<clipPath id="clip0_573_5001">
<rect width="116.167" height="34" fill="white"/>
</clipPath>
</defs>
</svg>
